<svg width="373" height="360" viewBox="0 0 373 360" fill="none" xmlns="http://www.w3.org/2000/svg">
<path d="M186 80V280C186 313.137 159.137 340 126 340H66C32.8629 340 6 313.137 6 280V80C6 46.8629 32.8629 20 66 20H126C159.137 20 186 46.8629 186 80Z" stroke="#D1D5DB" stroke-width="2" stroke-linecap="round" stroke-dasharray="9 9"/>
<path d="M276 80V280C276 313.137 249.137 340 216 340H66C32.8629 340 6 313.137 6 280V80C6 46.8629 32.8629 20 66 20H216C249.137 20 276 46.8629 276 80Z" stroke="#9CA3AF" stroke-width="2" stroke-linecap="round" stroke-dasharray="9 9"/>
<path d="M366 80V240V280C366 313.137 339.137 340 306 340H186.5H66C32.8629 340 6 313.137 6 280V80C6 46.8629 32.8629 20 66 20H186H306C339.137 20 366 46.8629 366 80Z" stroke="white" stroke-width="12" stroke-linecap="round"/>
<path d="M162.017 158.984L140.803 180.197L162.017 201.41" stroke="#F9FAFB" stroke-width="12" stroke-linecap="round" stroke-linejoin="round"/>
<path d="M366.5 180H141.5" stroke="#F9FAFB" stroke-width="12" stroke-linecap="round"/>
</svg>
